<svg width="23" height="23" viewBox="0 0 23 23" fill="none" xmlns="http://www.w3.org/2000/svg">
<path d="M21.144 11.1008C21.144 16.6475 21.144 21.144 11.1008 21.144C1.05762 21.144 1.05762 16.6475 1.05762 11.1008C1.05762 5.55412 5.55412 1.05762 11.1008 1.05762C16.6475 1.05762 21.144 5.55412 21.144 11.1008Z" fill="#FFB133"/>
<rect x="11.1348" y="11.9814" width="5.08789" height="1.69678" rx="0.848389" fill="white"/>
<circle cx="5.22168" cy="13.332" r="2.71387" fill="#FF8833"/>
<path d="M21.1313 10.6221C21.1388 10.7807 21.144 10.9402 21.144 11.1006C21.144 12.8939 21.1407 14.5769 20.8013 16.0342C19.4118 15.9157 18.3208 14.7522 18.3208 13.332C18.3208 11.8332 19.5358 10.6182 21.0347 10.6182C21.0671 10.6182 21.0992 10.6209 21.1313 10.6221Z" fill="#FF8833"/>
<circle cx="7.67383" cy="11.4666" r="1.36328" fill="white"/>
<circle cx="18.6118" cy="11.4666" r="1.36328" fill="white"/>
</svg>
