<svg width="23" height="23" viewBox="0 0 23 23" fill="none" xmlns="http://www.w3.org/2000/svg">
<rect x="2.5603" y="5.42072" width="17.8794" height="15.1911" rx="5" fill="#ED326D"/>
<rect x="2.5603" y="2.73798" width="17.8794" height="14.0525" rx="5" fill="#ED7EA1"/>
<path d="M5.90091 18.9523C5.90091 18.5907 6.19409 18.2975 6.55575 18.2975H8.14836C8.51001 18.2975 8.8032 18.5907 8.8032 18.9523V20.7754C8.8032 21.5768 8.1535 22.2265 7.35205 22.2265C6.55061 22.2265 5.90091 21.5768 5.90091 20.7754V18.9523Z" fill="#ED7EA1"/>
<path d="M14.1968 18.9523C14.1968 18.5907 14.49 18.2975 14.8516 18.2975H16.4442C16.8059 18.2975 17.0991 18.5907 17.0991 18.9523V20.7754C17.0991 21.5768 16.4494 22.2265 15.6479 22.2265C14.8465 22.2265 14.1968 21.5768 14.1968 20.7754V18.9523Z" fill="#ED7EA1"/>
<path d="M3.53111 9.7641C3.89276 9.7641 4.18594 10.0573 4.18594 10.4189L4.18594 12.0115C4.18594 12.3732 3.89276 12.6664 3.53111 12.6664L1.70806 12.6664C0.906617 12.6664 0.256917 12.0167 0.256917 11.2152C0.256917 10.4138 0.906615 9.7641 1.70806 9.7641L3.53111 9.7641Z" fill="#ED7EA1"/>
<path d="M19.4688 12.6665C19.1072 12.6665 18.814 12.3733 18.814 12.0117L18.814 10.4191C18.814 10.0574 19.1072 9.76422 19.4688 9.76422L21.2919 9.76422C22.0933 9.76422 22.743 10.4139 22.743 11.2154C22.743 12.0168 22.0933 12.6665 21.2919 12.6665L19.4688 12.6665Z" fill="#ED7EA1"/>
<path d="M8.80319 4.04768C8.80319 4.40933 8.51001 4.70251 8.14835 4.70251L6.55574 4.70251C6.19409 4.70251 5.90091 4.40933 5.90091 4.04768L5.90091 2.22463C5.90091 1.42319 6.55061 0.773487 7.35205 0.773488C8.15349 0.773488 8.80319 1.42319 8.80319 2.22463L8.80319 4.04768Z" fill="#ED7EA1"/>
<path d="M17.0991 4.04768C17.0991 4.40933 16.8059 4.70251 16.4442 4.70251L14.8516 4.70251C14.49 4.70251 14.1968 4.40933 14.1968 4.04768L14.1968 2.22463C14.1968 1.42319 14.8465 0.773487 15.6479 0.773488C16.4494 0.773488 17.0991 1.42319 17.0991 2.22463L17.0991 4.04768Z" fill="#ED7EA1"/>
<path d="M5.25793 11.4765C6.28357 11.4765 7.11501 10.645 7.11501 9.61941C7.11501 8.59377 6.28357 7.76233 5.25793 7.76233C4.23229 7.76233 3.40085 8.59377 3.40085 9.61941C3.40085 10.645 4.23229 11.4765 5.25793 11.4765Z" fill="#ED326D" fill-opacity="0.4"/>
<path d="M17.742 11.4765C18.7676 11.4765 19.5991 10.645 19.5991 9.61941C19.5991 8.59377 18.7676 7.76233 17.742 7.76233C16.7164 7.76233 15.8849 8.59377 15.8849 9.61941C15.8849 10.645 16.7164 11.4765 17.742 11.4765Z" fill="#ED326D" fill-opacity="0.4"/>
<path d="M13.0052 8.25781H9.9947C9.57873 8.25781 9.24152 8.59502 9.24152 9.01099V9.01099C9.24152 9.42696 9.57873 9.76417 9.9947 9.76417H13.0052C13.4212 9.76417 13.7584 9.42696 13.7584 9.01099C13.7584 8.59502 13.4212 8.25781 13.0052 8.25781Z" fill="white"/>
<path d="M6.67287 9.01115C7.3413 9.01115 7.88316 8.46929 7.88316 7.80087C7.88316 7.13244 7.3413 6.59058 6.67287 6.59058C6.00445 6.59058 5.46259 7.13244 5.46259 7.80087C5.46259 8.46929 6.00445 9.01115 6.67287 9.01115Z" fill="white"/>
<path d="M16.3271 9.01109C16.9955 9.01109 17.5374 8.46923 17.5374 7.8008C17.5374 7.13238 16.9955 6.59052 16.3271 6.59052C15.6587 6.59052 15.1168 7.13238 15.1168 7.8008C15.1168 8.46923 15.6587 9.01109 16.3271 9.01109Z" fill="white"/>
</svg>
